<svg xmlns="http://www.w3.org/2000/svg" xmlns:xlink="http://www.w3.org/1999/xlink" version="1.1" preserveAspectRatio="xMidYMid meet" viewBox="0 0 12 12" width="48" height="48" ><rect id="svgEditorBackground" x="0" y="0" width="640" height="640" style="fill:none;stroke:none;"/><defs><path d="M167.67 50.73L168.76 50.82L169.84 50.94L170.89 51.1L171.92 51.28L172.94 51.49L173.93 51.73L174.9 51.99L175.85 52.28L176.78 52.58L177.69 52.91L178.57 53.25L179.44 53.61L180.28 53.99L181.09 54.38L181.89 54.78L182.66 55.19L183.4 55.6L184.12 56.03L184.82 56.46L185.5 56.89L186.15 57.33L186.77 57.76L187.37 58.19L187.94 58.62L188.49 59.04L189.01 59.46L189.51 59.87L189.98 60.27L190.42 60.66L190.84 61.03L191.22 61.39L191.59 61.73L191.92 62.06L192.22 62.36L192.5 62.64L192.75 62.9L192.97 63.14L193.16 63.34L251.83 119.51L252.44 120.08L253.04 120.65L253.62 121.23L254.19 121.81L254.75 122.39L255.29 122.98L255.81 123.57L256.32 124.17L256.82 124.77L257.3 125.37L257.77 125.98L258.22 126.59L258.66 127.21L259.08 127.82L259.49 128.45L259.88 129.07L260.26 129.7L260.62 130.34L260.97 130.98L261.3 131.62L261.62 132.26L261.93 132.91L262.21 133.56L262.49 134.21L262.75 134.87L262.99 135.53L263.22 136.2L263.43 136.86L263.63 137.54L263.81 138.21L263.97 138.89L264.13 139.57L264.26 140.25L264.38 140.94L264.49 141.62L264.58 142.32L264.65 143.01L264.71 143.71L264.75 144.41L264.78 145.11L264.79 146.06L264.78 146.99L264.73 147.91L264.66 148.82L264.57 149.7L264.45 150.58L264.31 151.43L264.14 152.27L263.96 153.1L263.76 153.9L263.54 154.69L263.31 155.47L263.07 156.22L262.81 156.96L262.53 157.67L262.25 158.37L261.96 159.05L261.66 159.71L261.36 160.35L261.04 160.97L260.73 161.57L260.41 162.15L260.09 162.71L259.77 163.25L259.46 163.76L259.14 164.25L258.83 164.72L258.52 165.17L258.23 165.6L257.93 166L257.65 166.38L257.38 166.74L257.12 167.07L256.87 167.37L256.64 167.66L256.42 167.91L256.22 168.14L256.04 168.35L255.88 168.53L255.73 168.68L223.91 205L225.16 207.44L226.44 209.86L227.73 212.27L229.04 214.67L230.37 217.05L231.73 219.42L233.1 221.78L234.49 224.13L235.9 226.46L237.34 228.78L238.79 231.09L240.26 233.39L241.76 235.67L243.27 237.94L244.81 240.2L246.37 242.45L247.95 244.69L249.55 246.92L251.17 249.13L252.81 251.34L254.47 253.53L256.16 255.71L257.86 257.89L259.59 260.05L261.34 262.2L263.12 264.34L264.91 266.47L266.73 268.59L268.56 270.7L270.43 272.81L272.31 274.9L274.22 276.98L276.14 279.05L278.1 281.12L280.07 283.18L282.07 285.22L284.09 287.26L286.13 289.29L288.2 291.31L290.29 293.32L292.69 295.61L294.8 297.61L296.91 299.58L299.03 301.53L301.15 303.45L303.29 305.36L305.43 307.24L307.58 309.09L309.74 310.92L311.91 312.73L314.08 314.52L316.27 316.28L318.46 318.02L320.66 319.74L322.87 321.44L325.09 323.11L327.32 324.76L329.56 326.39L331.81 328L334.06 329.58L336.33 331.14L338.61 332.69L340.89 334.2L343.19 335.7L345.5 337.18L347.81 338.63L350.14 340.06L352.48 341.47L354.83 342.86L357.19 344.23L359.57 345.58L361.95 346.91L364.35 348.21L366.75 349.5L369.17 350.76L371.6 352L374.04 353.23L376.5 354.43L378.97 355.61L381.45 356.78L383.94 357.92L418.78 324.49L418.92 324.33L419.1 324.16L419.3 323.96L419.53 323.75L419.78 323.51L420.06 323.26L420.36 323L420.69 322.72L421.04 322.42L421.41 322.12L421.81 321.8L422.23 321.48L422.67 321.14L423.14 320.81L423.63 320.46L424.14 320.12L424.68 319.77L425.23 319.42L425.81 319.07L426.41 318.73L427.03 318.38L427.67 318.05L428.33 317.71L429.01 317.39L429.71 317.08L430.43 316.77L431.17 316.48L431.93 316.2L432.71 315.94L433.51 315.69L434.32 315.45L435.15 315.24L436.01 315.05L436.87 314.88L437.76 314.73L438.66 314.6L439.59 314.5L440.52 314.43L441.48 314.38L442.44 314.37L443.13 314.38L443.82 314.4L444.51 314.44L445.19 314.49L445.87 314.56L446.55 314.64L447.23 314.74L447.9 314.85L448.58 314.98L449.25 315.12L449.92 315.28L450.58 315.45L451.25 315.64L451.91 315.84L452.57 316.06L453.23 316.29L453.88 316.54L454.54 316.8L455.19 317.08L455.83 317.37L456.48 317.68L457.12 318L457.76 318.34L458.4 318.69L459.04 319.06L459.67 319.44L460.3 319.83L460.93 320.25L461.56 320.67L462.18 321.11L462.8 321.57L463.42 322.04L464.03 322.52L464.64 323.02L465.25 323.54L465.86 324.06L466.46 324.61L467.07 325.17L467.66 325.74L468.26 326.33L526.84 382.21L527.05 382.39L527.28 382.59L527.54 382.81L527.82 383.06L528.12 383.33L528.44 383.63L528.78 383.96L529.14 384.31L529.51 384.68L529.89 385.08L530.29 385.5L530.7 385.95L531.12 386.42L531.54 386.92L531.98 387.43L532.41 387.97L532.86 388.54L533.3 389.13L533.74 389.74L534.19 390.37L534.63 391.03L535.07 391.7L535.5 392.4L535.93 393.13L536.35 393.87L536.75 394.64L537.15 395.43L537.54 396.24L537.91 397.07L538.26 397.92L538.6 398.79L538.92 399.69L539.22 400.6L539.5 401.54L539.76 402.5L539.99 403.47L540.2 404.47L540.38 405.49L540.53 406.52L540.65 407.58L540.72 408.37L540.77 409.16L540.8 409.95L540.81 410.74L540.81 411.52L540.79 412.31L540.75 413.09L540.69 413.88L540.61 414.66L540.52 415.44L540.41 416.22L540.28 417L540.13 417.78L539.96 418.56L539.78 419.34L539.58 420.11L539.35 420.89L539.12 421.66L538.86 422.43L538.59 423.2L538.29 423.97L537.98 424.74L537.65 425.5L537.31 426.27L536.94 427.03L536.56 427.79L536.16 428.55L535.74 429.31L535.31 430.07L534.85 430.82L534.38 431.57L533.89 432.33L533.39 433.08L532.86 433.82L532.32 434.57L531.76 435.32L531.18 436.06L530.58 436.8L529.97 437.54L529.34 438.28L529.25 438.38L529.09 438.57L528.86 438.84L528.56 439.18L528.19 439.6L527.76 440.08L527.27 440.63L526.71 441.24L526.1 441.9L525.42 442.62L524.68 443.4L523.89 444.21L523.04 445.08L522.14 445.98L521.18 446.92L520.18 447.89L519.12 448.89L518.01 449.92L516.86 450.97L515.66 452.04L514.42 453.12L513.13 454.22L511.8 455.32L510.44 456.43L509.03 457.54L507.59 458.65L506.1 459.76L504.59 460.85L503.04 461.93L501.46 463L499.85 464.04L498.21 465.07L496.54 466.07L494.85 467.03L493.13 467.96L491.39 468.86L489.62 469.72L487.84 470.53L486.03 471.29L484.21 472L483.85 472.17L483.41 472.38L482.89 472.61L482.3 472.87L481.62 473.16L480.88 473.47L480.06 473.81L479.16 474.17L478.19 474.55L477.14 474.94L476.03 475.35L474.84 475.77L473.58 476.21L472.25 476.65L470.84 477.1L469.37 477.56L467.83 478.02L466.22 478.48L464.55 478.95L462.81 479.41L461 479.87L459.12 480.32L457.18 480.76L455.17 481.2L453.11 481.62L450.97 482.03L448.78 482.42L446.52 482.8L444.2 483.16L441.82 483.49L439.39 483.81L436.89 484.09L434.33 484.36L431.71 484.59L429.04 484.79L426.31 484.96L423.52 485.1L420.68 485.2L417.78 485.26L414.83 485.28L411.15 485.25L407.36 485.14L403.48 484.97L399.5 484.72L395.42 484.39L391.26 483.97L387 483.46L382.65 482.85L378.21 482.15L373.69 481.34L369.08 480.42L364.39 479.39L359.62 478.24L354.77 476.97L349.84 475.58L344.84 474.06L339.76 472.4L334.6 470.6L329.38 468.65L324.09 466.56L318.73 464.32L313.3 461.92L307.81 459.35L302.26 456.63L296.64 453.73L290.97 450.65L285.24 447.4L279.45 443.96L273.61 440.34L267.71 436.52L261.77 432.51L255.77 428.29L249.73 423.87L243.64 419.24L237.51 414.4L231.34 409.33L225.12 404.04L218.87 398.53L212.58 392.78L206.25 386.8L203.11 383.78L192.26 373.19L182.13 362.67L172.7 352.26L163.93 341.94L155.81 331.74L148.32 321.65L141.42 311.69L135.11 301.87L129.36 292.19L124.14 282.67L119.44 273.31L115.23 264.11L111.48 255.1L108.18 246.27L105.31 237.64L102.83 229.21L100.73 220.99L98.99 213L97.59 205.23L96.49 197.7L95.68 190.42L95.14 183.39L94.85 176.62L94.77 170.13L94.9 163.91L95.2 157.99L95.65 152.35L96.24 147.03L96.94 142.02L97.72 137.32L98.57 132.96L99.46 128.94L100.37 125.27L101.27 121.95L102.16 118.99L102.99 116.41L103.76 114.21L104.43 112.39L104.99 110.98L105.41 109.97L106.03 108.12L106.72 106.28L107.45 104.46L108.22 102.66L109.04 100.88L109.89 99.12L110.78 97.38L111.7 95.67L112.65 93.99L113.62 92.33L114.61 90.71L115.63 89.11L116.65 87.55L117.69 86.02L118.73 84.53L119.78 83.07L120.83 81.65L121.87 80.27L122.91 78.94L123.94 77.64L124.96 76.4L125.96 75.2L126.94 74.04L127.89 72.94L128.82 71.88L129.72 70.88L130.58 69.94L131.41 69.05L132.2 68.21L132.94 67.44L133.63 66.72L134.28 66.07L134.87 65.48L135.4 64.95L135.87 64.49L136.28 64.1L136.61 63.78L136.88 63.53L137.07 63.35L137.19 63.25L137.84 62.63L138.5 62.03L139.16 61.45L139.83 60.88L140.5 60.32L141.17 59.78L141.84 59.26L142.52 58.75L143.2 58.25L143.88 57.77L144.56 57.31L145.25 56.86L145.94 56.43L146.63 56.01L147.33 55.61L148.03 55.23L148.73 54.86L149.43 54.5L150.14 54.16L150.84 53.84L151.55 53.53L152.26 53.23L152.98 52.96L153.69 52.7L154.41 52.45L155.13 52.22L155.85 52L156.58 51.81L157.31 51.62L158.03 51.46L158.76 51.3L159.5 51.17L160.23 51.05L160.97 50.95L161.7 50.86L162.44 50.79L163.18 50.73L163.93 50.69L164.67 50.67L165.42 50.66L166.55 50.68L167.67 50.73ZM164.74 71.16L164.39 71.18L164.05 71.21L163.71 71.25L163.36 71.3L163.02 71.36L162.67 71.42L162.32 71.5L161.97 71.58L161.62 71.68L161.27 71.78L160.92 71.89L160.57 72.01L160.22 72.14L159.87 72.28L159.51 72.42L159.16 72.58L158.8 72.74L158.44 72.92L158.09 73.1L157.73 73.29L157.37 73.49L157.01 73.7L156.65 73.92L156.29 74.14L155.92 74.38L155.56 74.62L155.2 74.87L154.83 75.13L154.47 75.4L154.1 75.68L153.74 75.97L153.37 76.26L153 76.57L152.64 76.88L152.27 77.2L151.9 77.54L151.53 77.88L151.16 78.22L151.1 78.28L150.96 78.4L150.77 78.59L150.5 78.84L150.18 79.16L149.8 79.53L149.37 79.96L148.88 80.45L148.34 80.99L147.76 81.59L147.14 82.24L146.48 82.94L145.78 83.69L145.05 84.48L144.29 85.32L143.51 86.21L142.7 87.14L141.87 88.11L141.02 89.12L140.16 90.17L139.29 91.25L138.41 92.37L137.52 93.52L136.64 94.71L135.75 95.92L134.87 97.16L134 98.43L133.14 99.72L132.29 101.04L131.46 102.38L130.65 103.74L129.86 105.13L129.1 106.52L128.37 107.94L127.67 109.36L127.01 110.81L126.38 112.26L125.8 113.72L125.26 115.19L124.77 116.66L124.33 117.81L124.1 118.36L123.72 119.3L123.21 120.63L122.6 122.33L121.9 124.41L121.15 126.84L120.36 129.63L119.56 132.77L118.76 136.24L117.99 140.05L117.27 144.17L116.63 148.62L116.08 153.37L115.64 158.41L115.35 163.75L115.21 169.38L115.26 175.28L115.51 181.44L115.99 187.87L116.71 194.55L117.71 201.47L119 208.63L120.6 216.02L122.54 223.62L124.84 231.45L127.51 239.47L130.59 247.69L134.1 256.11L138.05 264.7L142.47 273.47L147.38 282.4L152.8 291.49L158.75 300.73L165.26 310.11L172.35 319.63L180.04 329.27L188.35 339.04L197.3 348.91L206.92 358.89L217.23 368.96L220.43 372.02L226.39 377.66L232.31 383.07L238.19 388.27L244.03 393.25L249.83 398.02L255.59 402.59L261.3 406.95L266.96 411.12L272.58 415.09L278.14 418.87L283.66 422.47L289.12 425.88L294.53 429.12L299.88 432.18L305.18 435.08L310.42 437.81L315.59 440.38L320.71 442.79L325.77 445.06L330.76 447.17L335.68 449.14L340.54 450.97L345.33 452.67L350.05 454.23L354.69 455.67L359.27 456.98L363.77 458.18L368.19 459.26L372.54 460.23L376.81 461.09L381 461.85L385.1 462.52L389.12 463.09L393.06 463.57L396.92 463.96L400.68 464.28L404.36 464.51L407.94 464.68L411.43 464.77L414.83 464.8L417.62 464.78L420.35 464.72L423.03 464.62L425.64 464.49L428.21 464.32L430.71 464.12L433.15 463.89L435.54 463.63L437.86 463.35L440.12 463.04L442.32 462.71L444.46 462.37L446.53 462L448.54 461.63L450.48 461.23L452.36 460.83L454.17 460.42L455.91 460L457.59 459.58L459.19 459.16L460.73 458.73L462.19 458.31L463.59 457.89L464.91 457.48L466.15 457.08L467.33 456.68L468.43 456.3L469.45 455.94L470.4 455.59L471.27 455.25L472.06 454.94L472.78 454.66L473.41 454.39L473.97 454.16L474.45 453.95L474.84 453.78L475.15 453.64L475.38 453.53L475.52 453.46L475.58 453.43L476.68 452.96L477.89 452.49L479.11 451.99L480.32 451.46L481.52 450.89L482.73 450.29L483.92 449.67L485.11 449.01L486.3 448.33L487.47 447.63L488.63 446.9L489.78 446.16L490.92 445.4L492.05 444.62L493.16 443.83L494.26 443.03L495.34 442.22L496.41 441.41L497.45 440.58L498.48 439.75L499.49 438.93L500.47 438.1L501.44 437.27L502.38 436.45L503.29 435.63L504.18 434.82L505.04 434.03L505.88 433.24L506.68 432.47L507.46 431.71L508.21 430.97L508.92 430.26L509.6 429.56L510.25 428.89L510.86 428.24L511.44 427.62L511.98 427.03L512.48 426.47L512.95 425.95L513.37 425.46L513.75 425.01L514.11 424.59L514.46 424.17L514.79 423.76L515.12 423.35L515.44 422.94L515.74 422.53L516.04 422.12L516.33 421.72L516.61 421.31L516.87 420.91L517.13 420.51L517.38 420.11L517.61 419.72L517.84 419.32L518.06 418.93L518.27 418.53L518.46 418.14L518.65 417.75L518.83 417.37L519 416.98L519.15 416.6L519.3 416.21L519.44 415.83L519.57 415.45L519.68 415.07L519.79 414.7L519.89 414.32L519.98 413.95L520.06 413.58L520.13 413.21L520.19 412.84L520.23 412.47L520.27 412.11L520.3 411.74L520.32 411.38L520.33 411.02L520.33 410.66L520.32 410.3L520.3 409.95L520.27 409.59L520.22 409.1L520.14 408.6L520.05 408.12L519.94 407.64L519.81 407.18L519.67 406.72L519.52 406.27L519.36 405.82L519.18 405.39L519 404.97L518.8 404.55L518.6 404.15L518.39 403.75L518.18 403.37L517.96 403L517.73 402.64L517.51 402.29L517.28 401.95L517.05 401.62L516.82 401.31L516.59 401.01L516.36 400.72L516.14 400.44L515.92 400.18L515.71 399.93L515.5 399.7L515.3 399.48L515.11 399.27L514.93 399.08L514.75 398.9L514.59 398.74L514.44 398.59L514.31 398.46L514.19 398.35L514.08 398.25L513.99 398.17L513.92 398.1L513.86 398.06L513.83 398.03L513.81 398.01L513.02 397.33L453.95 340.98L453.65 340.68L453.34 340.38L453.03 340.09L452.73 339.81L452.42 339.54L452.12 339.27L451.82 339.01L451.52 338.76L451.22 338.52L450.92 338.29L450.62 338.06L450.33 337.84L450.03 337.63L449.74 337.43L449.45 337.24L449.15 337.05L448.86 336.87L448.57 336.7L448.28 336.53L448 336.38L447.71 336.23L447.42 336.09L447.14 335.95L446.86 335.83L446.57 335.71L446.29 335.6L446.01 335.5L445.73 335.4L445.45 335.32L445.18 335.24L444.9 335.16L444.62 335.1L444.35 335.04L444.07 334.99L443.8 334.95L443.53 334.92L443.26 334.89L442.99 334.87L442.72 334.86L442.45 334.86L442.07 334.87L441.7 334.89L441.33 334.92L440.97 334.97L440.61 335.03L440.26 335.1L439.91 335.18L439.57 335.27L439.23 335.37L438.91 335.47L438.59 335.59L438.27 335.71L437.97 335.83L437.67 335.96L437.37 336.1L437.09 336.24L436.82 336.38L436.55 336.53L436.29 336.68L436.05 336.82L435.81 336.97L435.58 337.12L435.36 337.26L435.15 337.41L434.95 337.55L434.77 337.69L434.59 337.82L434.42 337.95L434.27 338.07L434.13 338.18L434 338.29L433.88 338.39L433.78 338.48L433.68 338.57L433.6 338.64L433.54 338.7L433.49 338.75L433.45 338.79L433.42 338.81L433.41 338.82L388.29 382.14L382.06 379.47L379.21 378.24L376.37 376.98L373.56 375.7L370.75 374.39L367.96 373.06L365.19 371.7L362.43 370.32L359.69 368.92L356.96 367.49L354.25 366.04L351.55 364.56L348.86 363.06L346.19 361.53L343.53 359.98L340.88 358.4L338.25 356.8L335.63 355.17L333.02 353.52L330.43 351.84L327.85 350.14L325.28 348.41L322.72 346.65L320.17 344.87L317.64 343.06L315.12 341.22L312.61 339.36L310.11 337.47L307.62 335.55L305.14 333.61L302.68 331.64L300.22 329.64L297.77 327.62L295.34 325.57L292.91 323.49L290.49 321.38L288.09 319.25L285.69 317.09L283.3 314.9L280.92 312.68L278.55 310.43L276.15 308.14L273.8 305.87L271.47 303.6L269.18 301.31L266.91 299.01L264.67 296.7L262.45 294.38L260.26 292.05L258.1 289.71L255.97 287.36L253.86 285L251.78 282.62L249.73 280.23L247.7 277.83L245.7 275.42L243.73 273L241.78 270.56L239.85 268.11L237.96 265.65L236.09 263.18L234.24 260.69L232.42 258.18L230.62 255.67L228.85 253.14L227.11 250.6L225.39 248.04L223.69 245.47L222.02 242.88L220.37 240.28L218.75 237.67L217.15 235.04L215.58 232.39L214.03 229.73L212.5 227.05L211 224.36L209.52 221.65L208.07 218.93L206.63 216.19L205.22 213.43L203.84 210.66L202.48 207.87L199.53 201.76L240.85 154.62L240.86 154.62L240.88 154.59L240.91 154.56L240.95 154.51L241.01 154.44L241.07 154.36L241.14 154.27L241.23 154.16L241.32 154.04L241.42 153.91L241.52 153.77L241.63 153.61L241.75 153.44L241.87 153.26L242 153.07L242.13 152.87L242.26 152.66L242.39 152.44L242.52 152.2L242.66 151.96L242.79 151.71L242.92 151.45L243.05 151.18L243.18 150.9L243.31 150.62L243.43 150.32L243.54 150.02L243.65 149.71L243.76 149.4L243.86 149.07L243.95 148.75L244.03 148.41L244.1 148.07L244.17 147.72L244.22 147.37L244.26 147.01L244.29 146.65L244.31 146.29L244.31 145.92L244.31 145.54L244.29 145.27L244.27 145L244.24 144.73L244.2 144.46L244.15 144.19L244.1 143.92L244.04 143.65L243.97 143.38L243.9 143.1L243.81 142.83L243.72 142.56L243.62 142.28L243.52 142.01L243.41 141.73L243.29 141.46L243.16 141.18L243.02 140.91L242.88 140.63L242.73 140.35L242.57 140.07L242.4 139.8L242.23 139.52L242.05 139.24L241.86 138.96L241.67 138.68L241.46 138.4L241.25 138.12L241.04 137.84L240.81 137.56L240.58 137.28L240.34 137L240.09 136.72L239.84 136.44L239.58 136.16L239.31 135.88L239.03 135.6L238.75 135.31L238.45 135.03L238.16 134.75L237.85 134.47L177.98 77.09L177.97 77.08L177.94 77.04L177.89 76.99L177.82 76.92L177.74 76.83L177.63 76.73L177.51 76.6L177.36 76.47L177.2 76.32L177.03 76.16L176.83 75.98L176.62 75.8L176.4 75.61L176.16 75.41L175.9 75.2L175.63 74.99L175.34 74.78L175.04 74.56L174.72 74.33L174.39 74.11L174.05 73.89L173.69 73.67L173.32 73.45L172.94 73.23L172.55 73.02L172.14 72.81L171.72 72.61L171.3 72.42L170.86 72.24L170.41 72.07L169.95 71.91L169.48 71.76L169 71.62L168.51 71.5L168.02 71.39L167.51 71.3L167 71.23L166.48 71.18L165.95 71.15L165.42 71.14L165.08 71.14L164.74 71.16Z" id="c6kWWCrwi"/></defs><g><g><g><use xlink:href="#c6kWWCrwi" opacity="1" fill="#000000" fill-opacity="1"/><g><use xlink:href="#c6kWWCrwi" opacity="1" fill-opacity="0" stroke="#000000" stroke-width="1" stroke-opacity="0"/></g></g></g></g></svg>