<svg xmlns="http://www.w3.org/2000/svg"><path d="m 24,20.727273 a 3.2727275,3.2727275 0 1 1 -6.545455,0 3.2727275,3.2727275 0 0 1 6.545455,0 z m -8.727273,0 a 3.2727273,3.2727273 0 1 1 -6.5454543,0 3.2727273,3.2727273 0 0 1 6.5454543,0 z m -8.7272724,0 A 3.2727273,3.2727273 0 1 1 5e-8,20.727273 3.2727273,3.2727273 0 0 1 6.5454546,20.727273 Z M 24,12 A 3.2727275,3.2727275 0 1 1 17.454545,12 3.2727275,3.2727275 0 0 1 24,12 Z m -8.727273,0 a 3.2727273,3.2727273 0 1 1 -6.5454543,0 3.2727273,3.2727273 0 0 1 6.5454543,0 z M 6.5454546,12 A 3.2727273,3.2727273 0 1 1 5e-8,12 3.2727273,3.2727273 0 0 1 6.5454546,12 Z M 24,3.2727274 a 3.2727275,3.2727275 0 1 1 -6.545455,0 3.2727275,3.2727275 0 0 1 6.545455,0 z m -8.727273,0 a 3.2727273,3.2727273 0 1 1 -6.5454543,0 3.2727273,3.2727273 0 0 1 6.5454543,0 z M 3.2727274,1.0362835e-7 a 3.2727273,3.2727273 0 1 1 0,6.54545449637165 3.2727273,3.2727273 0 0 1 0,-6.54545449637165 z" /></svg>
