<svg xmlns="http://www.w3.org/2000/svg"><path d="m 6.7480065,14.346026 c -1.1713731,0.305991 -3.6975945,0.966383 -4.86837,1.272972 -0.4691468,0.122516 -0.95562523,-0.0771 -1.20842673,-0.49126 -0.2456297,-0.404601 -0.4757208,-1.018377 -0.4757208,-1.904079 0,-2.765874 1.59928283,-5.8329594 12.00059803,-5.8329594 10.401314,0 11.999402,3.0670854 11.999402,5.8329594 0,0.883311 -0.228896,1.497086 -0.473929,1.901091 -0.252203,0.415957 -0.743463,0.615569 -1.213805,0.493053 L 17.647752,14.347222 C 17.262872,14.246818 16.963455,13.94501 16.86604,13.559533 L 16.371792,11.60824 c -0.110563,-0.436874 -0.471538,-0.759599 -0.918571,-0.814582 -0.772748,-0.09502 -2.041536,-0.223517 -3.257134,-0.223517 -1.2156,0 -2.4843868,0.128492 -3.2571348,0.223517 -0.447034,0.05498 -0.808008,0.377708 -0.918572,0.814582 l -0.4942474,1.951293 c -0.098013,0.38488 -0.3932467,0.68609 -0.7781263,0.786493 z" /></svg>
