<svg xmlns="http://www.w3.org/2000/svg" width="22" height="25"><path d="M 11,0 C 4.936593,0 0,4.936593 0,11 V 14.332031 15 c 0,1.105 0.895,2 2,2 H 4 V 12 C 4,10.915111 3.135755,10.037622 2.058594,10.005859 2.551747,5.494469 6.354019,2 11,2 15.645981,2 19.448253,5.494469 19.941406,10.005859 18.864245,10.037622 18,10.915111 18,12 v 5 h 2 c 1.105,0 2,-0.895 2,-2 V 12 11 C 22,4.936593 17.063407,0 11,0 Z m 7,19 v 1 c 0,1.116666 -0.883334,2 -2,2 H 12.728516 C 12.371883,21.38229 11.713268,21.001261 11,21 c -1.10457,0 -2,0.89543 -2,2 0,1.104569 0.89543,2 2,2 0.713966,-5.65e-4 1.373486,-0.381687 1.730469,-1 H 16 c 2.197334,0 4,-1.802666 4,-4 v -1 z" style="fill:currentColor" /></svg>
