<svg xmlns:svg="http://www.w3.org/2000/svg"><path d="m 3.0002012,1.9997987 a 0.995,0.995 0 0 0 -0.707,0.293 l -2.00000004,2 a 0.999,0.999 0 0 0 0,1.414 l 7.29300004,7.2930003 -7.29300004,7.293 a 0.999,0.999 0 0 0 0,1.414 l 2.00000004,2 a 0.999,0.999 0 0 0 1.414,0 l 7.2929998,-7.293 7.293,7.293 a 0.999,0.999 0 0 0 1.414,0 l 2,-2 a 0.999,0.999 0 0 0 0,-1.414 l -7.293,-7.293 7.293,-7.2930003 a 0.999,0.999 0 0 0 0,-1.414 l -2,-2 a 0.999,0.999 0 0 0 -1.414,0 l -7.293,7.293 -7.2929998,-7.293 a 0.996,0.996 0 0 0 -0.707,-0.293 z" /></svg>
