<svg xmlns="http://www.w3.org/2000/svg" height="24.000002" width="26"><path style="fill:#d8d8d8" d="M 4,0 C 1.791,0 0,1.791 0,4 v 12 c 0,2.209 1.791,4 4,4 H 6.527344 C 6.336066,21.174186 5.780463,22.360903 4.326172,23.03125 4.130137,23.103937 4.000026,23.290923 4,23.5 4,23.776142 4.223858,24 4.5,24 4.54962,24.000147 4.59899,23.9929 4.646484,23.97852 7.13498,23.923672 9.816729,22.476108 11.269531,20 H 22 c 2.209,0 4,-1.791 4,-4 V 4 C 26,1.791 24.209,0 22,0 Z M 7,8 C 8.105,8 9,8.895 9,10 9,11.105 8.105,12 7,12 5.895,12 5,11.105 5,10 5,8.895 5.895,8 7,8 Z m 6,0 c 1.105,0 2,0.895 2,2 0,1.105 -0.895,2 -2,2 -1.105,0 -2,-0.895 -2,-2 0,-1.105 0.895,-2 2,-2 z m 6,0 c 1.105,0 2,0.895 2,2 0,1.105 -0.895,2 -2,2 -1.105,0 -2,-0.895 -2,-2 0,-1.105 0.895,-2 2,-2 z" /></svg>
