<svg xmlns="http://www.w3.org/2000/svg" width="24" height="22.153849"><path d="M 3.6923077,0 C 1.6532308,0 0,1.6532308 0,3.6923077 V 14.769231 c 0,2.039077 1.6532308,3.692307 3.6923077,3.692307 h 2.3329329 c -0.1765643,1.083864 -0.6894286,2.179296 -2.0318511,2.798077 -0.1809553,0.0671 -0.3010578,0.239699 -0.3010818,0.432693 0,0.2549 0.2066381,0.461538 0.4615385,0.461538 0.045803,1.36e-4 0.091375,-0.0066 0.135216,-0.01983 2.2970732,-0.05063 4.7725338,-1.386841 6.1135818,-3.67248 h 9.905048 C 22.346769,18.461538 24,16.808308 24,14.769231 V 3.6923077 C 24,1.6532308 22.346769,0 20.307692,0 Z" style="fill:currentColor" /></svg>
