<svg xmlns="http://www.w3.org/2000/svg"  xmlns:xlink="http://www.w3.org/1999/xlink" width="37" height="37" preserveAspectRatio="xMidYMid meet" viewBox="0 0 37 37"><rect id="svgEditorBackground" x="2.8798418045043945" y="1.7966623306274414" width="33.450653076171875" height="33.25333786010742" style="fill:none;stroke:none;"/>
 <defs>
  <path id="b1ypHfLNu" d="m9.09,35.76c-0.29,0.31 -0.27,0.8 0.05,1.08c0.14,0.14 0.33,0.21 0.51,0.21c0.21,0 0.42,-0.09 0.57,-0.25c2.31,-2.52 20.8,-22.66 23.11,-25.17c0.29,-0.32 0.27,-0.8 -0.04,-1.09c-0.32,-0.29 -0.8,-0.27 -1.09,0.05c-2.31,2.51 -20.8,22.65 -23.11,25.17z"/>
  <path id="aIRw1OmXQ" d="m9.09,35.76c-0.29,0.31 -0.27,0.8 0.05,1.08c0.14,0.14 0.33,0.21 0.51,0.21c0.21,0 0.42,-0.09 0.57,-0.25c2.31,-2.52 20.8,-22.66 23.11,-25.17c0.29,-0.32 0.27,-0.8 -0.04,-1.09c-0.32,-0.29 -0.8,-0.27 -1.09,0.05c-2.31,2.51 -20.8,22.65 -23.11,25.17z"/>
  <path id="b2V9uXZ6lV" d="m15.47,26.06c-8.7,-9.39 -5.52,-16.91 -5.38,-17.22c0.01,-0.01 0.03,-0.08 0.04,-0.09c0.46,-1.48 1.95,-2.86 1.98,-2.88c0.38,-0.37 0.76,-0.55 1.11,-0.53c0.51,0.02 0.9,0.44 0.9,0.44c0.45,0.43 4.04,3.87 4.49,4.31c0.31,0.28 0.47,0.56 0.48,0.83c0.02,0.37 -0.26,0.68 -0.26,0.68c-0.2,0.23 -1.24,1.41 -3.1,3.53c0.14,0.28 0.21,0.43 0.22,0.46c0.99,2.05 2.22,3.9 3.75,5.65c0.28,0.32 0.76,0.35 1.08,0.08c0.32,-0.28 0.35,-0.77 0.08,-1.09c-1.33,-1.51 -2.41,-3.11 -3.3,-4.85c0.24,-0.28 2.15,-2.46 2.39,-2.73c0.13,-0.14 0.7,-0.81 0.68,-1.77c-0.02,-0.7 -0.35,-1.35 -0.97,-1.92c-0.44,-0.42 -3.97,-3.79 -4.4,-4.21c-0.17,-0.19 -0.88,-0.89 -1.95,-0.95c-0.8,-0.04 -1.56,0.28 -2.25,0.94c-0.08,0.07 -1.78,1.65 -2.39,3.51c-0.32,0.75 -3.5,8.94 5.67,18.86c0.15,0.16 0.36,0.24 0.57,0.24c0.18,0 0.37,-0.07 0.52,-0.2c0.31,-0.29 0.33,-0.78 0.04,-1.09z"/>
  <path id="e4ecvlVE90" d="m15.47,26.06c-8.7,-9.39 -5.52,-16.91 -5.38,-17.22c0.01,-0.01 0.03,-0.08 0.04,-0.09c0.46,-1.48 1.95,-2.86 1.98,-2.88c0.38,-0.37 0.76,-0.55 1.11,-0.53c0.51,0.02 0.9,0.44 0.9,0.44c0.45,0.43 4.04,3.87 4.49,4.31c0.31,0.28 0.47,0.56 0.48,0.83c0.02,0.37 -0.26,0.68 -0.26,0.68c-0.2,0.23 -1.24,1.41 -3.1,3.53c0.14,0.28 0.21,0.43 0.22,0.46c0.99,2.05 2.22,3.9 3.75,5.65c0.28,0.32 0.76,0.35 1.08,0.08c0.32,-0.28 0.35,-0.77 0.08,-1.09c-1.33,-1.51 -2.41,-3.11 -3.3,-4.85c0.24,-0.28 2.15,-2.46 2.39,-2.73c0.13,-0.14 0.7,-0.81 0.68,-1.77c-0.02,-0.7 -0.35,-1.35 -0.97,-1.92c-0.44,-0.42 -3.97,-3.79 -4.4,-4.21c-0.17,-0.19 -0.88,-0.89 -1.95,-0.95c-0.8,-0.04 -1.56,0.28 -2.25,0.94c-0.08,0.07 -1.78,1.65 -2.39,3.51c-0.32,0.75 -3.5,8.94 5.67,18.86c0.15,0.16 0.36,0.24 0.57,0.24c0.18,0 0.37,-0.07 0.52,-0.2c0.31,-0.29 0.33,-0.78 0.04,-1.09z"/>
  <path id="a3wITjbPrt" d="m35.89,24.47c-0.61,-0.6 -1.28,-0.89 -1.98,-0.89c-0.95,0.01 -1.6,0.62 -1.73,0.76c-0.27,0.25 -2.36,2.25 -2.62,2.5c-1.75,-0.79 -3.36,-1.78 -4.91,-3c-0.34,-0.26 -0.82,-0.2 -1.08,0.13c-0.27,0.33 -0.21,0.81 0.12,1.08c1.8,1.41 3.67,2.53 5.73,3.41c0.03,0.01 0.19,0.08 0.47,0.2c2.03,-1.95 3.16,-3.03 3.38,-3.25c0.01,0 0.3,-0.29 0.68,-0.3c0.28,0 0.55,0.15 0.86,0.46c0.3,0.29 1.78,1.69 4.43,4.23c0.04,0.03 0.05,0.04 0.06,0.05c0,0 0.44,0.36 0.49,0.88c0.03,0.35 -0.13,0.73 -0.49,1.15c-0.36,0.43 -1.57,1.65 -2.78,2.09c-0.01,0.01 -0.08,0.03 -0.09,0.04c-0.07,0.04 -7.45,3.64 -17.13,-4.32c-0.33,-0.27 -0.81,-0.23 -1.08,0.1c-0.27,0.33 -0.22,0.81 0.1,1.08c5.41,4.45 10.16,5.54 13.54,5.54c2.98,0 4.88,-0.85 5.23,-1.01c1.83,-0.69 3.33,-2.46 3.38,-2.53c0.64,-0.74 0.92,-1.51 0.85,-2.3c-0.11,-1.07 -0.85,-1.74 -1.04,-1.9c-0.44,-0.42 -3.95,-3.78 -4.39,-4.2z"/>
  <path id="a1kjko21" d="m35.89,24.47c-0.61,-0.6 -1.28,-0.89 -1.98,-0.89c-0.95,0.01 -1.6,0.62 -1.73,0.76c-0.27,0.25 -2.36,2.25 -2.62,2.5c-1.75,-0.79 -3.36,-1.78 -4.91,-3c-0.34,-0.26 -0.82,-0.2 -1.08,0.13c-0.27,0.33 -0.21,0.81 0.12,1.08c1.8,1.41 3.67,2.53 5.73,3.41c0.03,0.01 0.19,0.08 0.47,0.2c2.03,-1.95 3.16,-3.03 3.38,-3.25c0.01,0 0.3,-0.29 0.68,-0.3c0.28,0 0.55,0.15 0.86,0.46c0.3,0.29 1.78,1.69 4.43,4.23c0.04,0.03 0.05,0.04 0.06,0.05c0,0 0.44,0.36 0.49,0.88c0.03,0.35 -0.13,0.73 -0.49,1.15c-0.36,0.43 -1.57,1.65 -2.78,2.09c-0.01,0.01 -0.08,0.03 -0.09,0.04c-0.07,0.04 -7.45,3.64 -17.13,-4.32c-0.33,-0.27 -0.81,-0.23 -1.08,0.1c-0.27,0.33 -0.22,0.81 0.1,1.08c5.41,4.45 10.16,5.54 13.54,5.54c2.98,0 4.88,-0.85 5.23,-1.01c1.83,-0.69 3.33,-2.46 3.38,-2.53c0.64,-0.74 0.92,-1.51 0.85,-2.3c-0.11,-1.07 -0.85,-1.74 -1.04,-1.9c-0.44,-0.42 -3.95,-3.78 -4.39,-4.2z"/>
 </defs>
 <g>
  <title>Layer 1</title>
  <g id="svg_1">
   <g id="svg_2">
    <use x="-5" y="-2" id="svg_3" fill="#000000" xlink:href="#b1ypHfLNu"/>
    <g id="svg_4">
     <use x="-5" y="-2" id="svg_5" stroke-opacity="0" stroke="#000000" fill-opacity="0" xlink:href="#b1ypHfLNu"/>
    </g>
   </g>
   <g id="svg_6">
    <use x="-5" y="-2" id="svg_7" fill-opacity="0" fill="#000000" xlink:href="#aIRw1OmXQ"/>
    <g id="svg_8">
     <use x="-5" y="-2" id="svg_9" stroke-opacity="0" stroke="#000000" fill-opacity="0" xlink:href="#aIRw1OmXQ"/>
    </g>
   </g>
   <g id="svg_10">
    <use x="-5" y="-2" id="svg_11" fill="#000000" xlink:href="#b2V9uXZ6lV"/>
    <g id="svg_12">
     <use x="-5" y="-2" id="svg_13" stroke-opacity="0" stroke="#000000" fill-opacity="0" xlink:href="#b2V9uXZ6lV"/>
    </g>
   </g>
   <g id="svg_14">
    <use x="-5" y="-2" id="svg_15" fill-opacity="0" fill="#000000" xlink:href="#e4ecvlVE90"/>
    <g id="svg_16">
     <use x="-5" y="-2" id="svg_17" stroke-opacity="0" stroke="#000000" fill-opacity="0" xlink:href="#e4ecvlVE90"/>
    </g>
   </g>
   <g id="svg_18">
    <use x="-5" y="-2" id="svg_19" fill="#000000" xlink:href="#a3wITjbPrt"/>
    <g id="svg_20">
     <use x="-5" y="-2" id="svg_21" stroke-opacity="0" stroke="#000000" fill-opacity="0" xlink:href="#a3wITjbPrt"/>
    </g>
   </g>
   <g id="svg_22">
    <use x="-5" y="-2" id="svg_23" fill-opacity="0" fill="#000000" xlink:href="#a1kjko21"/>
    <g id="svg_24">
     <use x="-5" y="-2" id="svg_25" stroke-opacity="0" stroke="#000000" fill-opacity="0" xlink:href="#a1kjko21"/>
    </g>
   </g>
  </g>
 </g>
</svg>