<svg xmlns="http://www.w3.org/2000/svg"><path d="M 3.3825244,0.01856874 C 3.1049387,0.04057114 2.838727,0.1383867 2.612933,0.30134368 2.586319,0.31908638 -0.03295341,2.2175597 3.1423283e-4,3.2843421 0.09789933,6.3283311 3.0598283,9.911256 5.5282871,12.383041 c 2.46735,2.46735 6.0480569,5.431497 9.1042439,5.5313 h 0.01885 c 1.057911,0 2.931988,-2.588222 2.94973,-2.613728 0.206525,-0.283425 0.306995,-0.63036 0.283884,-0.980286 -0.02883,-0.326023 -0.177427,-0.605471 -0.410301,-0.768483 -1.207323,-0.814217 -2.421263,-1.618581 -3.641697,-2.413012 -0.357073,-0.219567 -0.882702,-0.184081 -1.402786,0.08982 -0.293864,0.155249 -1.19209,0.667571 -1.611262,0.908207 C 10.448571,11.877373 9.5459091,11.190951 8.1331434,9.7770765 6.7170508,8.3620929 6.0317374,7.458322 5.7744677,7.0901601 6.0139947,6.6698789 6.5252074,5.7705437 6.6793475,5.4766795 6.9587957,4.9477241 6.9920633,4.4187686 6.7669523,4.0661316 5.9737752,2.8452435 5.170519,1.6309332 4.3572662,0.42332502 4.163205,0.15496606 3.796152,-0.01137214 3.3814154,0.01856874 Z M 14.052565,0.12058903 17.077702,2.861843 14.052565,5.6008787 c -0.230392,0.2208197 -0.613723,0.1026311 -0.679769,-0.2095861 -0.03072,-0.1446798 0.02037,-0.2945552 0.133071,-0.3903403 l 1.912889,-1.7332441 h -3.265773 c -1.397241,0 -2.4396267,1.0057917 -2.4396267,2.439627 V 9.3667756 H 8.899408 V 5.7073352 c 0,-1.8452451 1.44936,-3.2524663 3.253575,-3.2524663 h 3.265773 L 13.505867,0.7238427 c -0.420503,-0.38052521 0.128397,-0.98230088 0.546698,-0.60325367 z" style="stroke-width:1.10892129" /></svg>
