<svg xmlns="http://www.w3.org/2000/svg"><path d="m 4.8181844,2.1818186 c -0.4518693,0 -0.8181818,0.3663125 -0.8181818,0.8181817 -2e-6,0.00106 -2e-6,0.00213 0,0.0032 V 12 20.996804 c -2e-6,0.0011 -2e-6,0.0021 0,0.0032 0,0.451869 0.3663125,0.818181 0.8181818,0.818181 0.1703144,-4.91e-4 0.3362294,-0.05412 0.4746093,-0.153409 l 0.00164,0.0016 16.2278043,-8.923295 c 0.290758,-0.133068 0.477398,-0.423326 0.477767,-0.743109 1.64e-4,-0.329139 -0.196916,-0.626333 -0.500177,-0.754261 L 5.2943916,2.3336297 h -0.00164 C 5.1542231,2.2349097 4.9883237,2.1818444 4.8181844,2.1818186 Z" /></svg>
