<svg xmlns:svg="http://www.w3.org/2000/svg"><path d="m 10,16 a 8.01,8.01 0 0 1 3.219,0.656 l -3.219,3 -3.219,-3 A 8.01,8.01 0 0 1 10,16 Z M 10,4 c 2.773,0 5,2.227 5,5 0,2.773 -2.227,5 -5,5 C 7.227,14 5,11.773 5,9 5,6.227 7.227,4 10,4 Z M 10,2 C 6.145,2 3,5.145 3,9 3,11.41 4.23,13.55 6.094,14.813 2.527,16.343 0,19.883 0,24 H 2 A 7.988,7.988 0 0 1 5,17.75 L 9.313,21.719 10,22.375 10.688,21.719 15,17.75 A 7.988,7.988 0 0 1 18,24 h 2 c 0,-4.117 -2.527,-7.656 -6.094,-9.188 A 7.024,7.024 0 0 0 17,9 C 17,5.145 13.855,2 10,2 Z"/></svg>
