<svg xmlns="http://www.w3.org/2000/svg"><path d="M1393.032 363.807a.5.5 0 0 0 .114.547l.147.146h-1.793a.5.5 0 1 0 0 1h1.793l-.147.146a.5.5 0 1 0 .708.707l1-1a.5.5 0 0 0 0-.707l-1-1a.5.5 0 0 0-.822.161zm5.884-4.807c-1.383 0-2.916.799-2.916 5.999 0 5.2 1.533 6.001 2.916 6.001.443 0 .75-.115.952-.238a.544.544 0 0 0 .246-.604l-.636-2.434a.542.542 0 0 0-.393-.389l-.976-.247a.543.543 0 0 1-.408-.46 14.097 14.097 0 0 1-.111-1.629c0-.608.063-1.241.111-1.628a.543.543 0 0 1 .408-.46l.976-.247a.545.545 0 0 0 .394-.39l.635-2.43a.548.548 0 0 0-.247-.608c-.202-.122-.51-.236-.951-.236zm-8 0c-1.383 0-2.916.799-2.916 5.999 0 5.201 1.533 6.001 2.916 6.001.443 0 .75-.115.952-.238a.544.544 0 0 0 .246-.604l-.636-2.434a.542.542 0 0 0-.393-.389l-.976-.247a.543.543 0 0 1-.408-.46 14.097 14.097 0 0 1-.111-1.629c0-.608.063-1.241.111-1.628a.543.543 0 0 1 .408-.46l.976-.247a.545.545 0 0 0 .394-.39l.635-2.43a.548.548 0 0 0-.247-.608c-.202-.122-.51-.236-.951-.236z"/></svg>
