<svg xmlns="http://www.w3.org/2000/svg"><path d="m 7.3984101,3.0338982 c -2.0519017,0 -4.3263762,1.197785 -4.3263762,8.9985348 0,7.8015 2.2744745,9.001465 4.3263762,9.001465 0.6572617,0 1.1122237,-0.172922 1.4126647,-0.357422 0.3071175,-0.18975 0.4563645,-0.553524 0.3651195,-0.905274 C 8.9491948,18.892952 8.45852,16.998347 8.2315198,16.119347 8.1573378,15.830597 7.9339303,15.609839 7.6490676,15.536339 L 6.2016298,15.165734 c -0.32418,-0.08325 -0.5648347,-0.354692 -0.6056347,-0.689942 -0.070477,-0.57975 -0.1651732,-1.532109 -0.1651732,-2.443359 0,-0.912 0.093957,-1.862144 0.1651732,-2.4418938 0.0408,-0.33525 0.2814547,-0.606691 0.6056347,-0.689941 l 1.4474378,-0.370606 c 0.2856044,-0.07275 0.5089762,-0.297188 0.5839012,-0.585938 l 0.9432255,-3.644531 c 0.091245,-0.3525 -0.057968,-0.722133 -0.3665685,-0.911133 -0.300441,-0.183 -0.75618,-0.354492 -1.4112157,-0.354492 z m 11.8692809,0 c -2.051901,0 -4.326375,1.197785 -4.326375,8.9985348 0,7.80075 2.274474,9.001465 4.326375,9.001465 0.657262,0 1.112224,-0.172922 1.412665,-0.357422 0.307118,-0.18975 0.456365,-0.553524 0.36512,-0.905274 -0.227,-0.87825 -0.717675,-2.772855 -0.944675,-3.651855 -0.07418,-0.28875 -0.297589,-0.509508 -0.582452,-0.583008 l -1.447438,-0.370605 c -0.32418,-0.08325 -0.564834,-0.354692 -0.605635,-0.689942 -0.07048,-0.57975 -0.165172,-1.532109 -0.165172,-2.443359 0,-0.912 0.09396,-1.862144 0.165172,-2.4418938 0.0408,-0.33525 0.281455,-0.606691 0.605635,-0.689941 l 1.447438,-0.370606 c 0.285604,-0.07275 0.508976,-0.297188 0.583901,-0.585938 l 0.943226,-3.644531 c 0.09125,-0.3525 -0.05797,-0.722133 -0.366569,-0.911133 -0.300441,-0.183 -0.75618,-0.354492 -1.411216,-0.354492 z m -8.042772,6.742676 c -0.301867,8e-5 -0.573589,0.185067 -0.68718,0.4678268 -0.11359,0.282761 -0.0464,0.606911 0.169929,0.81977 L 10.925,11.283898 H 8.2648445 c -0.267531,-0.0038 -0.5163742,0.138281 -0.6512437,0.371905 -0.1348695,0.233623 -0.1348695,0.522567 0,0.75619 0.1348695,0.233624 0.3837127,0.37573 0.6512437,0.371905 H 10.925 l -0.217332,0.219727 c -0.193797,0.188112 -0.271864,0.46745 -0.204092,0.730281 0.06777,0.262832 0.27079,0.468087 0.530759,0.536604 0.259968,0.06852 0.536263,-0.01041 0.722326,-0.206339 l 1.483662,-1.5 c 0.289586,-0.292897 0.289586,-0.767649 0,-1.060546 l -1.483662,-1.5 C 11.616996,9.8584752 11.425215,9.7765862 11.224919,9.7765742 Z" /></svg>
