<svg xmlns="http://www.w3.org/2000/svg"><path d="m 2.7375798,4.637054 c -0.8382758,0 -1.5172411,0.6789652 -1.5172411,1.517241 v 10.620691 c 0,0.838276 0.6789653,1.517241 1.5172411,1.517241 H 14.875512 c 0.838275,0 1.517241,-0.678965 1.517241,-1.517241 V 6.154295 c 0,-0.8382758 -0.678966,-1.517241 -1.517241,-1.517241 z M 22.461718,6.154295 c -0.197569,3.7e-6 -0.387343,0.077086 -0.528959,0.2148447 l -4.022765,3.5782597 v 1.5172406 1.517241 l 4.050916,3.60345 c 0.138331,0.122002 0.316367,0.189418 0.500808,0.189655 0.418975,0 0.758621,-0.339647 0.758621,-0.758621 V 11.46464 6.9129162 c 0,-0.4189741 -0.339646,-0.7586212 -0.758621,-0.7586212 z" /></svg>
