<?xml version="1.0" encoding="UTF-8"?>
<svg width="310px" height="96px" viewBox="0 0 310 96" version="1.1" xmlns="http://www.w3.org/2000/svg" xmlns:xlink="http://www.w3.org/1999/xlink">
    <!-- Generator: Sketch 53.1 (72631) - https://sketchapp.com -->
    <title>Assets / Logo</title>
    <desc>Created with Sketch.</desc>
    <defs>
        <polygon id="path-1" points="0 95.1225 309.473 95.1225 309.473 0.0005 0 0.0005"></polygon>
    </defs>
    <g id="Assets-/-Logo" stroke="none" stroke-width="1" fill="none" fill-rule="evenodd">
        <g id="Group-14">
            <path d="M99.1186,26.5634 C99.1186,21.2674 95.4276,18.5384 89.4086,18.5384 L77.1316,18.5384 L77.1316,34.6684 L89.6496,34.6684 C95.6676,34.6684 99.1186,31.4584 99.1186,26.7234 L99.1186,26.5634 Z M98.8776,63.5574 L86.8406,45.5824 L77.1316,45.5824 L77.1316,63.5574 L64.7736,63.5574 L64.7736,7.3844 L90.4516,7.3844 C103.6926,7.3844 111.6376,14.3654 111.6376,25.9214 L111.6376,26.0814 C111.6376,35.1494 106.7426,40.8474 99.5996,43.4954 L113.3226,63.5574 L98.8776,63.5574 Z" id="Fill-1" fill="#69737B"></path>
            <mask id="mask-2" fill="white">
                <use xlink:href="#path-1"></use>
            </mask>
            <g id="Clip-4"></g>
            <polygon id="Fill-3" fill="#69737B" mask="url(#mask-2)" points="117.332 63.5575 129.69 63.5575 129.69 7.3845 117.332 7.3845"></polygon>
            <polygon id="Fill-5" fill="#69737B" mask="url(#mask-2)" points="177.1152 63.5571 149.9112 27.8471 149.9112 63.5571 137.7142 63.5571 137.7142 7.3841 149.1092 7.3841 175.4292 41.9711 175.4292 7.3841 187.6272 7.3841 187.6272 63.5571"></polygon>
            <path d="M222.1308,64.52 C204.6378,64.52 192.6008,52.243 192.6008,35.631 L192.6008,35.471 C192.6008,19.501 205.0388,6.421 222.0508,6.421 C232.1618,6.421 238.2608,9.15 244.1178,14.125 L236.3348,23.514 C232.0018,19.903 228.1498,17.816 221.6498,17.816 C212.6618,17.816 205.5208,25.761 205.5208,35.311 L205.5208,35.471 C205.5208,45.743 212.5818,53.286 222.5318,53.286 C227.0268,53.286 231.0378,52.163 234.1678,49.916 L234.1678,41.891 L221.7308,41.891 L221.7308,31.217 L246.1248,31.217 L246.1248,55.613 C240.3468,60.507 232.4018,64.52 222.1308,64.52" id="Fill-6" fill="#69737B" mask="url(#mask-2)"></path>
            <path d="M258.1513,36.0249 L258.1513,13.2339 L275.4843,13.2339 C284.5513,13.2339 289.8483,17.4069 289.8483,24.3889 C289.8483,31.6919 283.8303,36.0249 275.4043,36.0249 L258.1513,36.0249 Z M309.4723,49.5279 L302.0983,49.5279 L294.7923,59.6009 L280.9323,40.6189 C289.7573,39.0119 296.2673,33.5359 296.2673,24.1479 C296.2673,14.0369 288.3233,7.3769 275.9653,7.3769 L251.8113,7.3769 L251.8113,63.5489 L258.1513,63.5489 L258.1513,41.7219 L274.3583,41.7129 L291.1173,64.6669 L280.2073,79.7079 L287.5803,79.7079 L294.8163,69.7319 L302.0993,79.7079 L309.4723,79.7079 L298.4913,64.6669 L309.4723,49.5279 Z" id="Fill-7" fill="#026BB5" mask="url(#mask-2)"></path>
            <path d="M37.0068,40.0571 C35.2118,40.0571 33.7558,39.1671 33.7558,38.0711 C33.7558,36.9731 35.2118,36.0831 37.0068,36.0831 C38.8028,36.0831 40.2578,36.9731 40.2578,38.0711 C40.2578,39.1671 38.8028,40.0571 37.0068,40.0571 L37.0068,40.0571 Z M37.0068,46.1371 C35.2118,46.1371 33.7558,45.2481 33.7558,44.1511 C33.7558,43.0531 35.2118,42.1641 37.0068,42.1641 C38.8028,42.1641 40.2578,43.0531 40.2578,44.1511 C40.2578,45.2481 38.8028,46.1371 37.0068,46.1371 L37.0068,46.1371 Z M37.0068,52.2181 C35.2118,52.2181 33.7558,51.3281 33.7558,50.2321 C33.7558,49.1341 35.2118,48.2451 37.0068,48.2451 C38.8028,48.2451 40.2578,49.1341 40.2578,50.2321 C40.2578,51.3281 38.8028,52.2181 37.0068,52.2181 L37.0068,52.2181 Z M28.6378,41.0201 C26.8418,41.0201 25.3868,40.1301 25.3868,39.0341 C25.3868,37.9361 26.8418,37.0461 28.6378,37.0461 C30.4338,37.0461 31.8888,37.9361 31.8888,39.0341 C31.8888,40.1301 30.4338,41.0201 28.6378,41.0201 L28.6378,41.0201 Z M28.6378,47.1001 C26.8418,47.1001 25.3868,46.2111 25.3868,45.1141 C25.3868,44.0161 26.8418,43.1271 28.6378,43.1271 C30.4338,43.1271 31.8888,44.0161 31.8888,45.1141 C31.8888,46.2111 30.4338,47.1001 28.6378,47.1001 L28.6378,47.1001 Z M28.6378,53.1811 C26.8418,53.1811 25.3868,52.2911 25.3868,51.1951 C25.3868,50.0971 26.8418,49.2071 28.6378,49.2071 C30.4338,49.2071 31.8888,50.0971 31.8888,51.1951 C31.8888,52.2911 30.4338,53.1811 28.6378,53.1811 L28.6378,53.1811 Z M20.2688,40.0571 C18.4728,40.0571 17.0178,39.1671 17.0178,38.0711 C17.0178,36.9731 18.4728,36.0831 20.2688,36.0831 C22.0648,36.0831 23.5198,36.9731 23.5198,38.0711 C23.5198,39.1671 22.0648,40.0571 20.2688,40.0571 L20.2688,40.0571 Z M20.2688,46.1371 C18.4728,46.1371 17.0178,45.2481 17.0178,44.1511 C17.0178,43.0531 18.4728,42.1641 20.2688,42.1641 C22.0648,42.1641 23.5198,43.0531 23.5198,44.1511 C23.5198,45.2481 22.0648,46.1371 20.2688,46.1371 L20.2688,46.1371 Z M20.2688,52.2181 C18.4728,52.2181 17.0178,51.3281 17.0178,50.2321 C17.0178,49.1341 18.4728,48.2451 20.2688,48.2451 C22.0648,48.2451 23.5198,49.1341 23.5198,50.2321 C23.5198,51.3281 22.0648,52.2181 20.2688,52.2181 L20.2688,52.2181 Z M41.7318,26.9691 C41.7318,30.1921 39.1168,32.8071 35.8938,32.8071 L21.2988,32.8071 C18.0738,32.8071 15.4608,30.1921 15.4608,26.9691 L15.4608,21.8911 C14.7348,22.5811 13.7648,23.0811 12.6368,23.2871 L12.6368,51.8391 C12.6368,55.8161 15.8608,59.0401 19.8378,59.0401 L37.8378,59.0401 C41.8138,59.0401 45.0368,55.8161 45.0368,51.8391 L45.0368,23.3441 C43.7108,23.2041 42.5588,22.6811 41.7318,21.8981 L41.7318,26.9691 Z" id="Fill-8" fill="#69737B" mask="url(#mask-2)"></path>
            <path d="M16.1972,8.3837 C17.1952,6.5937 19.1042,5.3817 21.2992,5.3817 L35.8932,5.3817 C38.0852,5.3817 39.9932,6.5917 40.9912,8.3787 C41.7502,7.1257 43.1842,6.2377 44.9332,6.0257 C44.3712,2.6087 41.4122,-0.0003 37.8372,-0.0003 L19.8372,-0.0003 C16.2372,-0.0003 13.2622,2.6457 12.7302,6.0967 C14.2652,6.4017 15.5102,7.2437 16.1972,8.3837" id="Fill-9" fill="#69737B" mask="url(#mask-2)"></path>
            <path d="M81.5278,90.9819 C77.7988,90.9819 74.7648,87.9479 74.7648,84.2179 C74.7648,80.4889 77.7988,77.4549 81.5278,77.4549 C85.2568,77.4549 88.2908,80.4889 88.2908,84.2179 C88.2908,87.9479 85.2568,90.9819 81.5278,90.9819 M81.5278,73.3139 C79.0478,73.3139 76.7658,74.1559 74.9318,75.5559 C73.7528,74.6959 70.8858,72.8849 67.8818,73.0549 C62.6248,73.3639 59.9068,76.0059 57.5098,78.3379 C54.7048,81.0659 52.0548,83.6429 44.6688,83.7179 C44.6018,83.7189 44.5368,83.7189 44.4708,83.7189 C35.1548,83.7189 31.9858,76.9339 30.9098,72.5629 L25.7538,72.5629 C27.0858,79.5099 32.0268,88.7189 44.4608,88.7189 C44.5458,88.7189 44.6338,88.7189 44.7198,88.7179 C54.1068,88.6229 57.9268,84.9079 60.9958,81.9219 C63.1908,79.7889 64.7758,78.2469 68.1738,78.0469 C69.2718,77.9769 70.7728,78.7519 71.7478,79.4259 C71.0358,80.8759 70.6238,82.4979 70.6238,84.2179 C70.6238,90.2309 75.5158,95.1229 81.5278,95.1229 C87.5398,95.1229 92.4318,90.2309 92.4318,84.2179 C92.4318,78.2059 87.5398,73.3139 81.5278,73.3139" id="Fill-10" fill="#026BB5" mask="url(#mask-2)"></path>
            <path d="M41.9507,69.3384 L15.6067,69.3384 C7.0007,69.3384 -0.0003,62.6884 -0.0003,54.5134 C-0.0003,52.9944 1.2317,51.7634 2.7497,51.7634 C4.2687,51.7634 5.4997,52.9944 5.4997,54.5134 C5.4997,59.6544 10.0337,63.8384 15.6067,63.8384 L41.9507,63.8384 C47.5237,63.8384 52.0567,59.6544 52.0567,54.5134 C52.0567,52.9944 53.2887,51.7634 54.8067,51.7634 C56.3257,51.7634 57.5567,52.9944 57.5567,54.5134 C57.5567,62.6884 50.5557,69.3384 41.9507,69.3384" id="Fill-11" fill="#026BB5" mask="url(#mask-2)"></path>
            <path d="M51.2241,14.1123 C50.3961,13.4293 49.4591,12.8223 48.4351,12.3063 L48.4351,10.4053 C48.4351,9.3873 47.2471,8.5903 45.7311,8.5903 C45.4981,8.5903 45.2631,8.6143 44.9911,8.6663 C43.8161,8.8883 43.0281,9.5873 43.0281,10.4053 L43.0281,18.9553 C43.0281,19.7733 43.8161,20.4723 44.9911,20.6953 C45.2631,20.7463 45.4981,20.7703 45.7311,20.7703 C47.2471,20.7703 48.4351,19.9733 48.4351,18.9553 L48.4351,17.6563 C49.3091,18.3913 50.0551,19.2583 50.6551,20.2383 C51.6771,21.9083 52.2171,23.8173 52.2171,25.7563 L52.2171,49.2603 C52.2171,49.3413 52.2561,49.4163 52.3211,49.4633 C52.3641,49.4943 52.4151,49.5103 52.4671,49.5103 C52.4941,49.5103 52.5211,49.5063 52.5471,49.4963 C53.8131,49.0683 55.1421,49.0593 56.3911,49.4563 C56.4651,49.4793 56.5491,49.4673 56.6141,49.4203 C56.6791,49.3723 56.7171,49.2983 56.7171,49.2183 L56.7171,25.7563 C56.7171,21.2363 54.7151,16.9913 51.2241,14.1123" id="Fill-12" fill="#026BB5" mask="url(#mask-2)"></path>
            <path d="M12.7207,8.8071 C12.3167,8.6631 11.8897,8.5901 11.4537,8.5901 C9.9377,8.5901 8.7507,9.3881 8.7507,10.4061 L8.7507,12.1721 C7.7587,12.6481 6.8227,13.2301 5.9657,13.9051 C2.3007,16.7911 0.1987,21.1101 0.1987,25.7561 L0.1987,49.3271 C0.1987,49.4091 0.2387,49.4861 0.3057,49.5321 C0.3477,49.5621 0.3977,49.5771 0.4487,49.5771 C0.4777,49.5771 0.5077,49.5721 0.5357,49.5611 C1.7737,49.0951 3.0957,49.0381 4.3797,49.4041 C4.4557,49.4261 4.5367,49.4111 4.5987,49.3631 C4.6617,49.3161 4.6987,49.2421 4.6987,49.1631 L4.6987,25.7561 C4.6987,23.6901 5.2977,21.6841 6.4307,19.9551 C7.0627,18.9911 7.8417,18.1441 8.7507,17.4321 L8.7507,18.9551 C8.7507,19.9731 9.9377,20.7701 11.4537,20.7701 C11.8887,20.7701 12.3157,20.6981 12.7207,20.5551 C13.6067,20.2411 14.1577,19.6281 14.1577,18.9551 L14.1577,10.4061 C14.1577,9.7331 13.6067,9.1201 12.7207,8.8071" id="Fill-13" fill="#026BB5" mask="url(#mask-2)"></path>
        </g>
    </g>
</svg>